<svg id="Layer_2" data-name="Layer 2" xmlns="http://www.w3.org/2000/svg" viewBox="0 0 516.64 693.77"><defs><style>.cls-1{fill:#231f20;}</style></defs><path class="cls-1" d="M645.09,655.64c-1.2-4.17-4.94-14.3-7.32-17.19s-6.47-7.66-8.51-10.39-4.52-10.72-4.77-14.8-3.4-9.37-6.64-12.26-9.19-12.17-10.89-15.32-11.15-18-13.28-21.45-6.13-12.08-11.23-22-11.32-12.43-15.32-16.34S553.85,516.83,551,514s-12.6-14.81-14.81-17.87-7.66-12.34-11.41-17a31.42,31.42,0,0,0-7.65-7h3.4c1.19,0,6.89-1.28,10.72-2s12.68-5.28,12.6-6.64-2.21-5.11-2.21-5.11,2.12-.85,2.89-1.19,3.49-2.3,3.4-4.08-.42-4.52-2.72-5.79-5.11,0-5.11,0-.68-1.62-1.36-3.41-5.79-6.38-7.83-8.68-6.38-4.51-8.68-5.27a12.56,12.56,0,0,0-5.62,0,24.46,24.46,0,0,0-2.38-4.94c-1.79-3-2.3-8.26-3.06-11.4s-.68-12.86-.68-17.88-1.62-13.44-4.6-18S499,366.87,498,364.06s-1.91-8-3.32-11.83-2.55-17.1-2.55-17.1,9.83,2.3,11,3.57,5.1,3.19,6.13,3.07,4.59,2.17,4.59,2.8a13.36,13.36,0,0,0,2.55,6.13c1.79,2.17,3.83,3.07,5.11,4.34s3.58,5.24,5.11,6.9,5.74,4.34,8.17,6.38,8.81.38,11.49,0,7.53-1.53,9.44-5.36,3.19-1.92,4.85-3.32,6.64-3.58,7.92-7.15-1-9.83-1.28-12.51-1.53-10.21-1.53-15.32-.51-6.38-.25-10,1.27-7.15,1.27-8.93-2.55-7.66-2.55-7.66.13-7.54,0-11.49,1.79-10.85,2.81-14.3,6-8.81,7.4-13,1.28-11.62.77-12.77-1.79-11.23-2-13-3.15-13.45-4.43-15.66-.68-5.7-.68-7.66,2.72-5.7,5.62-9,4.42-4.77,6.29-7.15,6.73-11.32,6.64-12.93,2.13-6.64,2.73-9.54,1.1-5.44,0-5.44a14.76,14.76,0,0,0-6.13,3.06c-.94,1.11-4.77,6.13-6,8s-7,6.21-9.53,9.7a14.5,14.5,0,0,1-9.7,5.28c-2.13,0-5.71-.51-6.3-1.53s1.27-5.11,1.7-9.88-1.36-4.93-3.23-4.42-5.11,2.81-7.15,3.57-4.51,6.22-5.45,6.81-5,1.11-6,.68a49.19,49.19,0,0,1-5.61-2.89c-1-.77-3.92-3.58-7.66-4.26s-7.66.68-9.37-.34-5.19-1.61-8.85-.85a60.16,60.16,0,0,0-5.95,1.53s-4.85-.59-7.49-.68-5.62,3.41-7,3.75-4.6.25-7.15,1-4,7.06-5.28,7.83-3.57,1.53-6.81,3.4-3.23,4.34-3.91,5.45-3.75.77-5.79,2.72-2.64,4.77-3.4,4.94a26.22,26.22,0,0,0-6.47,3.06c-1.79,1.37-1.53,5.71-2.21,6.3a53.34,53.34,0,0,1-5.79,4.6c-2.38,1.53-.51,5.61-2,9.7s-14,31-14,31-1.36-2.9-2.21-4.26-1.62-5.1-3.41-7.32-4.25-9-4.25-9,1.27-2.47,1.7-2.55,2.47.08,4.94,0,4.51-1.7,6.46-2.89,3.58-1.54,3.92-3.24-.51-6.72-1-8.17-1.87-3.83-2-5.28-3.74-4.42-3.74-4.42a22.06,22.06,0,0,1-1.19-4.94c-.09-1.87-1.13-10.72-2.34-13.53s-4.66-15.45-6.38-18.51-8.75-25.34-10.47-31.91S390.6,138.47,388,137s-13.92-3.51-16.6-4-9.12-2.42-9.19-3.7-3.25-7.64-2.81-8.34,3.63,0,4.68-.68,1.45-3.94,1.58-5.92a23.9,23.9,0,0,1,2-6.63c.7-1.54,2.49-5.49,2.3-7.66s-.13-4.73-.13-5.49.51-3.64.51-4.6,1.92,0,2.43,0,6.19-.32,7-1.4a3,3,0,0,0-1.28-4.34A42.77,42.77,0,0,0,371.72,83V75.55c0-2.21-1.36-10.55-7.15-14.29-5.06-3.28-14.13-4.21-20.08-4.43-12.56-.48-15.41,4.35-19.92,9s-5.95,22.3-5.95,25.7,5.1,4.6,5.1,5.79a11.64,11.64,0,0,0,1,3.4,19.85,19.85,0,0,0-2,3.75c-.51,1.53-1.44,7.91.43,9.79s6.48,2.75,6.48,2.75-.1,3.12-1.8,4.82-3.75,5.45-5.45,9.53-10.55,9.19-14.3,9.53-5.1,2.73-9.19,4.43-4.08,9.53-4.08,9.53-.17,11.24-.34,15-.68,15.15-.68,20.09-.17,16.34-.34,22.46,5.44,11.07,11.23,19.41,12.08,14.3,11.57,16.34-2.89,6.3-5.1,10.55-3.92,14.64-4.09,20.77S306,305,306,305s-15.83,4.43-21.79,7.15-18.55,11.23-23.83,18-17.87,18.55-24.17,31-15,42.53-15,42.53-6.64,15.68-8.69,21.81-7.91,13.79-9.19,16.85-7.66,22-9.7,25-7.15,22-11.23,28.6-9.71,16.85-13.79,21.45-13.28,13.27-13.28,13.27,4.34,2,13.79-5.1,16.09-16.6,15.32-13.79-5.62,12-7.15,17.87-3.32,13.79-8.68,22-6.89,18.38-4.6,14.3,15.83-15.07,13.79-10.73-6.13,11.49-7.66,18.9-.25,14.29-1,19.4-17.11,27.32-22,32.68S132,643,132,643s3.21,5.11,6.53,7.66a24.49,24.49,0,0,0,18.38,4.09c7.66-1.53,18.9-11.75,26.56-20.43s19.4-20.42,29.1-36.76,22-53.11,26.56-66.9,9.44-48.76,9.44-48.76a78.92,78.92,0,0,0,7.15,6.89c2.81,2.17,6.26,10,10.22,16.6s10.46,16.08,10.46,16.08.39,6.77.26,8.17.25,8.3-1,11.23-4.21,10.35-6.9,12.26-8.68,11.36-10.72,13.28-3.7,7.15-4.59,9.7-1.79,12.64-3.58,14.81-2,7.78-2,9.95-1.66,10-2.81,14.81-6.38,22.22-8.68,28.85-10.19,24.32-14,31.66c-1.56,3-1.54,11.37-1.28,15.58s5.74,11,4.34,17.62-7.91,8.55-7.91,10.72,2.29,15.32,3.19,18.38,8.55,4,12.89,4.85,20.81-1,20.68-4.34-5.36-16.34-7.15-20.68-4.47-9.32-4.85-12a117.46,117.46,0,0,1,0-14.17c.26-2.93.38-9.32,1.66-12.13,1.11-2.44,4.34-11.61,7-19.91s8.81-26,11.49-31.41,8.81-15.31,12.26-19.4,8.68-14.17,11.74-21.19,5.24-12.89,8.43-15.83,7.27-5.62,7.15-4.85,1,5.74,1,7.4,2.42,9.7,3.06,12.26,3.19,7.78,6.38,13,11,12.51,13.28,14.3,10.34,17.1,11,19.66,8.43,30.12,8.43,30.12-1.92,4.34-2.3,5.62-4.73,12.38-6.64,15.32-3.45,9.7-2.55,12.51,2.42,10.09,2.29,14.55-4.34,8.94-6.12,12-1.66,6.39-1,10.22.26,11.36,1.79,13.27,16.09,2.43,24.26,2.81,6.38-2.42,6.38-5.87-3.06-17.19-3.57-19.57-3.92-8.35-4.26-11.24.26-9.28,1.19-11.23,1.45-13.36,2-12.26,1.2,6.47,1.2,9.19a17.62,17.62,0,0,0,.68,5.79c.51,1.62,3.91,7.4,4.93,11.06s3.49,7.92,6.64,9.54,11.07,1.44,14.3,0,9.28-6.64,10.55-10.39-4.08-13.95-7.66-18.55-6.64-9.45-9.53-12.43-6.3-9-6-12.76-1.7-8.85-3.06-11.58a89.85,89.85,0,0,0-5.45-8.34s.94-2.8,2.22-6.46a37.82,37.82,0,0,1,4.08-8.69c1.11-1.44,8.09-10.8,9.19-15.83s1.79-18,1.36-21.95,2.05-25,3.07-30.3,7.06-23.49,7.15-27.06,6.55-12.43,10.21-16.86S420.32,511.3,423,510.45s16.25-6,19.91-7,8.26-3.58,11.75-3.58,12.93,6.39,15.66,9.2,12.17,11.82,18,12.76a46,46,0,0,1,13.11,4.09c3,1.44,16.68,9,20.93,10.55s15.15,8.25,19.24,9.53,11.91,6.72,15.31,8.51,9.71,9.19,12.77,12.94,9.19,12.85,12.6,17,10.55,20.17,11.74,24.17,5.87,11.57,10,14.3,7.15,8.17,7.66,13.1-3.32,8.26-3.57,9.37S610,652.57,610.7,656s3.24,11.4,6.13,13.28,13.28,5,18,6,10.9-1.1,13.11-2.89S646.28,659.81,645.09,655.64ZM521,436.23c1-.12,5.62,1.79,8.43,3.32s4.85,6.9,4.85,6.9a19.13,19.13,0,0,1-5.88.51c-2.17-.39-7.4-1-7.4-1l-1-4.3-1.79-5.41A18.77,18.77,0,0,0,521,436.23ZM363.21,508.74c-.64,2.43-1.53,10.6-3.06,17.88a183,183,0,0,0-3.06,28.59c0,7.15.12,27.7-1.28,33.7s-2.43,12-4.6,16.6-4.59,17.36-4.59,17.36-4.09-8.68-4.85-11.49a94.19,94.19,0,0,1-1.65-12.25c-.24-2.94-3.08-13.92-4.48-18.39s-6.64-12.89-11-18.12-7.92-14.81-7.92-14.81a53.71,53.71,0,0,0,2.56-5.62c.38-1.4,5-11.87,6.64-16.59s4.85-6.13,7.91-8.94,12-12.26,15.06-16.85,3.45,0,6.15,0,8.15,2,8.15,2S363.85,506.32,363.21,508.74ZM492.57,303c.34-2.56,3.75-9.87,3.75-9.87s2,3.65,3.06,6.46,3.15,5.36,4.6,8.51,2.89,6.47,2.89,6.47-8-1.53-9.19-1.53-6.58-2.55-6.58-2.55S492.23,305.51,492.57,303Zm-1.36,21.27c.26-.59,0-6.63,0-6.63s9.62,1.87,11.92,2.21,8.17.59,8.68,1.7,1.79,5.11,2.72,6.81,0,5.62,0,5.62h-1.87c-1.87,0-3.06-1.45-4.94-1.71s-4.68.09-6.46-.34-10.05-4.59-10.05-4.59A12.35,12.35,0,0,1,491.21,324.23Z" transform="translate(-132 -56.8)"/></svg>