<svg id="Layer_2" data-name="Layer 2" xmlns="http://www.w3.org/2000/svg" viewBox="0 0 838.42 925.88"><defs><style>.cls-1{fill:#231f20;}</style></defs><path class="cls-1" d="M863.45,935.94c-.17-7.49.51-15.66-6.13-16.68s-14.13-2.9-17.36-6.81-8-12.26-5.79-16,8-9.71,5.79-15.32-4.94-8.34-6.13-12.26,0-12.93-3.74-21.1-7.66-14.64-9.87-22.13-4.94-19.07-5.45-23.49-.51-14.47-3.06-16a25.22,25.22,0,0,1-4.43-3.41,102.15,102.15,0,0,0,.68-12.93c-.17-6-3.4-15.32-3.4-15.32s8.17-8.68,10.72-.51-1,14.81,4.08,22.47,8.94,6.89,13.79,4.08,6.64-8.93,7.66-14.3,8.43-38.55,6.13-51.57-12-9.7-16.34-21.45S818.09,669,810.68,658s-14-28.85-26.55-46,1.28-44.42-4.08-64.85S764.47,518,763.19,504s5.11-32.4-11.74-48.74S717.75,431,710.6,428.7,692,427.17,683,420.53s-45.7-33.19-53.61-39.83-20.94-10.72-33.7-12.76-32.94-4.6-38.3-6.64-14.56-11.24-17.88-13.79-1.67-2.89-3-11.06a54.52,54.52,0,0,0-3.67-13.28s7.49-3.91,6.12-8.51-7.83-6.81-15-6.81-24.52,1.7-29.28,1.7-11.06-.68-11.92-1.7,6.81-11.23,10.56-17,7.66-21.45,10.21-28.26,9.7-19.74,5.11-34.72-11.58-28.59-21.11-37.11S459.36,172,451.53,167.26s-43.4-21.28-49.36-25.88-27.4-16-34.38-17.7-18-3.91-20.43-3.74-7.48,0-7.48,0,2.89-5.1,3.4-14-4.94-24.17-8.85-31.32-12.94-15-19.07-15.66-15.14-1.7-22.46,0-14.13,10.38-16,11.57-3.41,4.77-3.41,4.77-6.64-1.53-10.55,3.75-2.55,11.4-.34,13.27S267,99.51,267,99.51s-1.7,11.4-1,14,6.73,3.87,8.77,4.51,2.55,1.79,2.55,4.85.77,7.91,1.79,9.7,2.3,7.92,2.3,7.92-5,4-7.15,5.87-5.62,8-6.38,8.68-4.47-3.06-7.92-6.38-12-6.13-15.06-7.41-6-1.4-9.19-5.61-5.37-3.45-10.47-4.09-4.6-3.7-4.85-5.87-4.73-4.47-8.43-3.32-10.85,7-9.19,3.32,1.91-5.62-2.81-3.07S191.15,131,188.73,130s-9.32,1.66-11.24.51a8.19,8.19,0,0,0-8.42,0c-3.19,1.91-6,1.91-8.68,1.79s-4.86-.39-8.17,1.78-7.66,1-10.22,2.81-4.59,6.9-7.91,6.9-7.53,1.14-12.51,1.27-7,1.53-8.94,4.34-7.66,8.94-7.66,10,3.7,7.4,0,7.4-8.55,4.47-12,4.6-6.64-3.06-10-4.34-3.44.38-3.57,3.32.38,5.49-3.06,5.62-8.56.25-8.94,2.29S65,184,63.88,184.11s-13.54-5.88-17.37-7.66-7.53-2.17-11-3.83S29.41,168.4,26.6,167s-1.15,1.28,0,4.6,7.66,10.34,10,12.76,5.61,7.92,7.91,8.68a55.27,55.27,0,0,1,9.7,4.09c3.32,1.91,2.43,9.7,2.56,12.51s0,6.38,0,6.38a42,42,0,0,0-3.58,4.34c-1.27,1.92-.76,7.28,0,8.68A47.22,47.22,0,0,0,56,233.13s-.38,6.64-1.53,9.44-4.47,8.69-4.85,14.3,4.34,11.62,5.1,15.58,6.64,17.61,6.64,20.42.26,22.6.26,25,1.66,18.13,1.78,19.92,1,6.76,1,8.93-.77,11.75-.77,15.32-1.4,12.13-1.28,16.09,2,11.74,7.15,13.53,11,5.11,13.53,7.66,7.54,8.55,12.77,7.66,10.09-1.66,13-3.83,7.79-2,9.7-7.66,6-6.25,6.13-10.72-2.55-8.05-2.55-10.47v-4.09s3.19.77,5.1-1.27a6,6,0,0,0,1.79-4.09h0a3.88,3.88,0,0,0,3.55-3.5c.09-.93.21-1.94.36-3l64.57-70.91c.25.31,1.54-.33,1.82-.55,1.19-.93,6.21,8.18,8,9.71s4.17,4.85,5.28,5.44,1,3.41,1,3.41.87,3.86,1.39,7.7a15.57,15.57,0,0,1,.35,3.58,14.65,14.65,0,0,1,0,2.34c-.09,2.72-1.28,8.08-2.21,12.93s-3.85,5.66-6.25,9.51c-1.59,3.77-2.88,6.75-3.29,7.64-.69,1.53-2.21,12.23-2.21,12.47,0,2.72-1,8.51-1,13.27a104.83,104.83,0,0,0,1.36,12.94s-7.83-1.36-10.89.68-6.13,7.15-8.17,11.24-6.13,12.42-7.15,15.32-2.21,8.17,0,10.89,4.77,11.23,4.77,11.23-18.73,6.3-23.15,9.19-7.49,3.75-9.54,10.56a69.82,69.82,0,0,0-2.72,18.72c0,4.6.85,9.53,6.13,13.28s12.08,11.23,16.34,13.27,7.32,6.3,7.49,7.49-.68,6.91,5.11,11.29,29.78,25.14,29.78,25.14,9.19,6.64,12.26,6.64,13.44-3.32,13.44-3.32,5.45,4.85,10.22,4.85,14.81-.34,19.74,0,11.92-2.38,11.92-2.38,9.36-.51,12.93-8.17,3.41-12.43,0-20.09-9.87-11.91-14.29-14-9-7.32-14.3-8.51-11.41-4.42-14.64-3.74-5.45,2.72-8.51,2.72h-8.85c-2.05,0-5.62-4.08-7.15-6.47s-2.21-3.57,4.08-3.06,9.71,3.4,12.6,3.74a120.2,120.2,0,0,0,15.32.69c5.79-.18,9.36.44,12.93-4.55s3.07-8.9,6.47-8.73,12.6,7.66,14.3,7.83,12.09,11.74,14,11.91,10.38,1,13.27,1,2.73-.17,9.54,4.43,18.89,17,31,23.15,33.36,11.23,37.78,11.23,12.94-3.57,13.28-6.47,2-4.25,5.79-4.08,42,4.77,47.66,5.11,23.83.34,29.95.34,16.85-1.71,21.45,0,10.72,4.08,11.23,8.51,3.92,25.7,7.15,32.68,18.05,17.87,21.79,23.15,8.17,15.32,13.28,22.81,15.83,15.83,19.06,21.1,8.85,11.07,12.94,18.38,8.85,25.88,13.27,32.35,13.45,21.27,19.07,26.89,13.61,16.68,16.34,25.19a165.81,165.81,0,0,0,9.53,23.83c3.74,7.49,11.74,15,14,25.87s4.25,18.39,4.42,20.09-4.76,6-4.76,8.85,4.25,32.51,6.46,40.51S680,888.28,681.32,893s5.11,8.34,8.17,11.58,7.15,14.29,7.83,21.78.34,20.09,2,25.2,4.94,18,7.15,22.12,7.49,10.56,14.64,10.22,14.3-1.2,18.38-8.17,7.83-21.62,7.49-26.22-2.38-15.32-5.78-16-8.51-4.08-12.26-4.08-9.36-7.15-9.19-8.85a16.4,16.4,0,0,0-.34-4.09s5.62.51,7.15-1.7,1.87-15.83.68-22.81-6-11.74-6.81-18.72-3.91-17.36-3.74-19.75,2.72-6.46,3.06-11.57-1.53-11.07-1.36-13.62-2.38-8.85-2.72-9.87-5.11-1-7.49-4.77-6.3-9.53-6.13-11.91-2.38-14.47-1.7-21.45S699,764,697.32,757.89s-5.61-17-5.44-22.12,2-16-2-21.11-13.61-11.92-15.66-18.72-12.93-24-15-31.32-7.48-19.24-5.78-23.49.51-13.62,2.38-16,5.62,7.32,11.57,11.91,13.11,6.13,19.07,13.62,14.47,18.55,19.4,26.55,14.81,22.13,20.43,29.62,18.76,21.79,20.79,26,1,10,6.1,16.84,7.66,10.9,13.62,18.39,11.06,12.93,11.91,16.34-2.38,11.74,0,20.08,9.2,45.45,10.22,54.13,3.06,28.43,6.81,31,13.78,7.49,14.29,12.59,2,20.77,3.41,29.28S822.6,949,826.68,958.4s5.45,16.86,12.6,20.43,15.66-12.94,19.74-19.4S863.62,943.43,863.45,935.94ZM141.24,325.55c1-3.74,2-8.42,3.57-12.42s2.81-3.49,4.43-7.15c.29-.66.6-1.26.93-1.85a12.5,12.5,0,0,1,3-4.61c.53-.78,1.05-1.56,1.51-2.39a74,74,0,0,1,5.11-7.32s1.87-4.77,2.89-6.64-.25-4.68.26-7.66,1.87-4.6.51-6.89,1.19-3,2.13-4.34,6.89-3.07,8.51-2.39,11,8.85,12.59,11.07c.28.37.7.88,1.21,1.46C175.08,289.3,153,316,137,335.46l-.22,0S140.22,329.3,141.24,325.55Z" transform="translate(-25.05 -58.07)"/></svg>