<svg id="Layer_2" data-name="Layer 2" xmlns="http://www.w3.org/2000/svg" viewBox="0 0 445.1 682.97"><defs><style>.cls-1{fill:#231f20;}</style></defs><path class="cls-1" d="M649.68,644.06c-.38-5.1-2.3-16.85-2-17.36a54.64,54.64,0,0,0,0-13.27c-.77-5-.77-12.52-1.28-18.39s-2.55-23.74-2.81-30.13-2.29-21.44-5.46-28.34.87-25.78-.15-30.63.63-14.81,0-21.54-3.07-30.8-6.39-42-4.85-28.34-4.85-33.7-2.81-25.4-3.32-33.45-6.51-29.36-11-37.53-14.17-23.11-17.87-27.32S581,299.64,581,299.64a77.22,77.22,0,0,0,1-8.68,11.05,11.05,0,0,0-3.32-8.43c-2.93-3.19-7.91-4.34-8.68-6.38s-8.3-15.19-11-19.92-10.72-19.66-13.27-25.78S531,211.43,527.89,207s-5.74-8.56-7.15-9.7-1.1-10.56-5-16.17-10.72-23.49-14-29.28-12.43-8.34-17-10.21-13.78-7.83-17.69-9.54a33.51,33.51,0,0,1-7.16-4.42s3.73-.58,4.77-1.7a8,8,0,0,0,.68-10.22c-3.06-4.42-4.6-3.57-3.06-5.1s3.23-3.41,4.42-4.43-.68-8.34-5.44-14.3S451.52,81,443.18,79s-15.8-.69-25.5,5.09S408,97.6,407.13,105.85c-.63,6.11,3.91,15,3.74,17.36s-3.41,9.59.34,11.12S422.28,130,422.28,130a2.19,2.19,0,0,1,1.92,2.19c.07.52,1,1.48,1.73,2.2,1,1,.46-.12,1.05,2.05.42,1.55,2.16.18-1.3,1-1.8.45-9.36,4.21-10.38,4.85s-7-.25-9.19,0-6.9,2-8.68,4.6-5,10.21-7.15,12.76-4.6,9.83-4.6,13.79-4.59,12-5.36,14.3-5.36,8.17-8.43,13-3.83,8.43-5.1,12.77-3.58,14.55-3.58,14.55-1-1.53-1.53-2.47-2.38-5.11-4.94-7.83-6.55-3.23-7.48-3.74-3.66-5.71-5.79-7.32-9.19-3.07-11.58-4.43-3.49-3.57-6.8-6.13-7.58-1.7-9.2-2.21-3.32-4.93-8-7-7.74-.42-9.19-.51-6.64-3.57-13.79-3.23-8.34,2-9.87,2-6.47-.43-9.87.34-5.87,3.23-6.64,2.21-3.66-5.78-4.76-7a23.53,23.53,0,0,0-7.32-4.42c-2.56-.85-2.39,1.79-1.88,2.09s.94,4.38,1.2,6.93a66.09,66.09,0,0,0,2.21,8.68s-3.75.51-4.77.51-4.93,0-6.64-1-5-1.7-8.17-3.4-8.25-3.58-10.38-4.6-2.72-3.32-5.79-5.62-4.85-1.61-4.93,0,1.61,5.71,2.21,8.34,6.64,11.41,7.93,14.13,8.41,7.58,11.47,8.68,3.24,5.19,3.07,6.64-2,4.68-2.72,5.79-2.73,2.64-3.24,3.91,1.62,5.28,1.19,6.64.09,5.19-1.87,6.81-2.72,8-3.91,10.38-.6,8.34,1,11.41,3.06,8.08,4.42,11.23,1.7,7.58,1.53,11.07-1.1,18-1.19,19.4-2.55,3.57-2.89,6.64a21.41,21.41,0,0,0,.51,6.47,49.37,49.37,0,0,1-.34,5.61,102.32,102.32,0,0,1-3.06,12.43c-.69,1.62-2.81,14-3.41,17.36s-.93,8.34,0,11.57,5,4.09,6.81,4.43,2.89,4.51,4.26,6.47,5.36,1.44,7.65,1.36,2.64.6,5.79.51,8.85.09,10.73-.51,5.53-3.74,6.8-4.94,2.73-1.53,5.62-3.74,3.41-6,3.41-8.17,1-8.51,1.87-7,4.42,3.4,4.42,3.4l32.12-19.06s1.59,9.87,1.59,13.28.85,11.74.68,16.34-4.09,12.42-5.11,17.7-6,19.57-5.11,23.83-1.36,18.21,0,23.51,6.81,27,9.54,32,6.8,20.42,6.8,20.42-.93,6.73-1.19,8a147.22,147.22,0,0,0-.25,17.62c.38,4.72,6.25,17,9.44,23.24s11.62,21.57,14.56,27.57,4.85,15.57,5.61,21.45,3.58,19.66,3.58,23.74,1.66,14.55,2.55,20.68,7,25,8.94,35.24,2.93,31.53,2.81,35.74.12,9.58.25,12.77-1.53,12.12-2.81,16.59-7.4,9.7-9.19,13.28-7.79,15.45-7.91,16.85,4.46,2.68,8.93,3.62,29-.81,29.88-3.36,3.19-9.32,3.06-12.77-2.68-6.51-4.09-13.28.26-12.12,2.56-15.57,4.47-13,4.34-18.38-3.83-14.94-4.85-18.9-5-38.68-5.11-44.42.89-17,.77-22-2.17-20.55-2.56-28.34-2.3-35-2.81-39.32-1.14-10.6-1.27-15.32a34.15,34.15,0,0,1,2-13.53c1.66-4.21,5.87-6.64,7.92-6.64s4.08,5.62,6.63,9.45,8.43,12.76,9.71,14.81,3.31,19.65,3.83,27.83.25,26.93.25,33.44-1.79,17.11-1.79,23,2,12.13,5.11,18.13,5.23,9.83,6.13,14,3.06,15.83,3.83,23-.77,27.06-.77,29.87-1.28,13-1.53,17.62-5.62,13-7.4,15.57-2.43,10.22-3.32,13.54-3.71,9.19-1.79,10,11.23,1,19.4,1.53,17.36-3.31,18.13-7.83,1.92-8.51,1.79-11.06-6.13-10.21-7.3-15.32,2.06-10.85,4.23-15.06,2.17-10.6,1-15.58S433.55,682,432,676.49s-2.91-18-3.43-27.58,3.07-12.25,3.43-16.08-.87-17.36-2.15-23.49-.25-12.64,0-19.15,2.43-30.38,3.32-37.53.26-19.28.26-26.3-1.79-21.7-.26-22.47a28.69,28.69,0,0,1,9.19-2.55c3.19-.13,10,1.79,14.55.51s17.62-4.21,20.69-4.08,1.66,3.57,1.53,5.87,1.66,13.53,3.06,20.93,9.19,24.77,12.77,28.86,7.15,13.27,7.91,17.1a158.8,158.8,0,0,1,1.79,17.87c0,2.94,4.34,14.69,6.13,17.88s4.21,16.34,4.08,22.46-1.15,21.71-1.27,29.62-2.17,22.34-2.81,26.3S509,699,509,701.51s-4.21,17-5.36,18.38-7.15,6.77-8.68,11-7.79,14.94-7.66,17.11,29.36,2.55,32.42,1.53,8-4.21,8.94-6.89.64-8.43.51-11.24-3.32-5.74-3.32-12,6.77-12.12,8.43-13.27,4.08-13,3.57-17.37-1.66-14.68-1.53-20.42.51-35.11,1-41.62a98.27,98.27,0,0,1,2.55-16.08c.64-1.79-.51-12.9-.51-14.81s3.45-13.79,4.34-18.9-2.81-12.38-5.87-18.38-4.72-11.62-6.89-17.87-4.73-20.55-4.85-26.3,1.53-20.17,5.36-28.34,4.59-10.34,6.64-12.76,9.57-9.58,11-8.94,5.61,6.25,8.17,8.94,10.46,15.19,13,21.19,6.38,24,7.91,29.36,5.24,25.91,5.62,29.87.13,22.09-1.79,24.51-.38,6.77.51,11,3.58,10.21,3.83,13,2.94,9.7,4.85,14.55,3.07,8.94,3.07,12.52-.51,16.59-.77,23-.25,24.39-2,28.09-2.3,11-2.3,15.57-.38,14.81-1,19.92-4.09,11.62-5.62,16.34-4.21,14.3-4.34,16.34,4.85,2.81,10.21,4.08S610.62,751,610.62,751s4.08-5.1,5.36-8.42-.64-10.34-2.55-14.56-3.32-7.15-3.32-11,1-9.45,2.55-12.52,3.7-6.38,3.57-12-4-17.36-4.85-19.56,2.56-12.61,2.56-12.61-2.17,3.2,0,4.09,5.23,7,7.15,7.4,16.85,2.3,19.65,0,10.6-.89,11.49-3.57S650.06,649.17,649.68,644.06ZM283.81,327.72s2.68-5.1,4.59-8.93,5.75-7,7.66-8.68,2.05-5.11,4.09-3.32,2.94,8.18,3.06,10.22a42.16,42.16,0,0,1,0,4.33s-10.08,5.75-11.74,6.38-7,1.79-8,2S283.81,327.72,283.81,327.72Zm20.68,4.86-29.36,14.8-1.53-2.29a36,36,0,0,1,2.55-5.11c1-1.41,28.34-11,28.34-11ZM407.13,218.7c-.77,4.6-.77,9.83-2,13.41s-6.52,9.44-6.39,12.12-1.48,7.54-3,9.2-3.35,7.66-3.35,7.66-2.94-6.13-3.58-7.66a62.88,62.88,0,0,1-2.8-6.64c-.77-2.56-3.2-4.47-1-6.13s8-7.28,9.45-9.45,2.17-8.81,3.58-10.47,2.55-8.55,3.32-9.19,1.27-5.23,1.27-7.4,1.79-.64,2.56,2.3S407.89,214.11,407.13,218.7Zm119.23,62.56c-10,0-18,.25-19.91.25s-8.17-1-8.17-1-4.22-22.47-5.88-27.06a91.43,91.43,0,0,0-5.61-12c-1.41-2.56-4.85-4.86-4.85-5.88s.89-12.38,2-16.85a82.88,82.88,0,0,1,4.08-11c.64-1.53-1.15-4.47,2.81-4.59s11.11,11.49,14,17.36,8.94,10.6,13,16.34,12,17.62,15.57,23,9.45,13.4,10.72,15.57,4.34,9.45,4.34,9.45S536.32,281.26,526.36,281.26Z" transform="translate(-207.29 -78.07)"/></svg>